<?xml version="1.0" encoding="UTF-8"?>
<svg version="1.1" xmlns="http://www.w3.org/2000/svg" width="1024" height="1024">
<path d="M0 0 C337.92 0 675.84 0 1024 0 C1024 337.92 1024 675.84 1024 1024 C686.08 1024 348.16 1024 0 1024 C0 686.08 0 348.16 0 0 Z " fill="#08090B" transform="translate(0,0)"/>
<path d="M0 0 C1.60029053 0.36617432 1.60029053 0.36617432 3.23291016 0.73974609 C7.02333884 1.65132896 10.79382357 2.62841329 14.5625 3.625 C15.94657917 3.98630104 17.33069425 4.34746457 18.71484375 4.70849609 C27.99584516 7.14289033 37.21709941 9.75429307 46.41333008 12.49243164 C54.10464997 14.77358426 61.84443848 16.80958065 69.61669922 18.79467773 C76.84237726 20.6562908 83.97461615 22.75787993 91.10595703 24.95019531 C96.91575654 26.72050746 102.72017559 28.19643827 108.6640625 29.45703125 C111 30 111 30 113 31 C119.75850895 30.53389593 126.03597443 29.13689006 132.5625 27.375 C133.55411133 27.11211182 134.54572266 26.84922363 135.56738281 26.57836914 C143.85696565 24.35882878 152.091843 21.96157548 160.32128906 19.5300293 C166.850545 17.60621181 173.39853928 15.81843526 179.99169922 14.12915039 C185.52037213 12.69381079 191.01454491 11.15190409 196.50390625 9.57421875 C197.26864761 9.35450912 198.03338898 9.1347995 198.82130432 8.90843201 C202.6752473 7.79964396 206.52754115 6.68541271 210.37817383 5.56518555 C236.78032487 -2.08835807 236.78032487 -2.08835807 243 0 C245.99644156 1.84883611 248.66834261 4.00406924 251.375 6.25 C252.96020453 7.52565096 254.54616147 8.80036739 256.1328125 10.07421875 C256.9362207 10.72567871 257.73962891 11.37713867 258.56738281 12.04833984 C262.40517012 15.12735146 266.32728608 18.09297699 270.25 21.0625 C271.61048729 22.09358609 272.96992052 23.12606496 274.328125 24.16015625 C274.8943457 24.58949463 275.46056641 25.01883301 276.04394531 25.46118164 C276.68944336 25.9689917 277.33494141 26.47680176 278 27 C279.05711182 27.57161865 280.11422363 28.1432373 281.20336914 28.73217773 C283.597996 30.76263687 283.97979256 31.87402981 284.48526001 35.02503967 C284.58726235 38.33433733 284.58570724 41.60231633 284.48335838 44.90982056 C284.41700522 47.15764129 284.39293485 49.40239455 284.38044739 51.65112305 C284.33825712 58.04005615 284.22773544 64.42681815 284.07250977 70.81396484 C283.98029123 74.730005 283.94324626 78.64365732 283.93779945 82.56072998 C283.92476521 84.04076367 283.89115569 85.52078523 283.83516502 86.99981689 C283.51329977 95.5921817 284.49880347 101.62619722 290.27075195 108.15234375 C291.6874903 109.65759136 293.1297082 111.12615807 294.60196877 112.57705688 C296.8214786 114.83611674 298.76525155 117.28324182 300.75 119.75 C301.40484375 120.54921875 302.0596875 121.3484375 302.734375 122.171875 C303.48203125 123.10515625 304.2296875 124.0384375 305 125 C305.87047974 125.8053418 305.87047974 125.8053418 306.75854492 126.62695312 C314.16887586 134.26178165 313.39732416 143.98100489 313.8125 154 C313.9145147 155.91016762 314.01976159 157.82016526 314.12817383 159.72998047 C314.3390288 163.47929987 314.53611979 167.22893844 314.72363281 170.97949219 C314.9899151 176.08462658 315.4213238 181.16468587 315.91210938 186.25292969 C316.85014133 196.03573809 317.22354338 205.80854107 317.29653931 215.63226318 C317.3069556 217.01434422 317.32170985 218.39640133 317.34140015 219.77838135 C317.48857775 231.61657975 317.5117901 242.76685155 309.18885803 251.81390381 C305.38460934 255.6133524 301.32757701 259.11469569 297.27475166 262.64454651 C270.89499973 285.80523225 250.94914983 304.64935178 248.50390625 341.5 C248.42633987 343.27323353 248.35348479 345.04668024 248.28564453 346.8203125 C247.9524641 354.65254727 246.46095579 362.31263212 245 370 C241.68403489 366.85715474 239.20399691 363.88330458 236.88671875 359.9609375 C232.82720117 354.07381966 228.51770299 352.54833864 221.8125 350.625 C219.51547929 349.8988983 217.21861363 349.17230595 214.921875 348.4453125 C213.67083984 348.0627832 212.41980469 347.68025391 211.13085938 347.28613281 C206.52549744 345.86748439 201.95812116 344.34021153 197.390625 342.8046875 C196.57611374 342.53089264 195.76160248 342.25709778 194.92240906 341.9750061 C193.28245962 341.42339145 191.64258199 340.87156325 190.0027771 340.31951904 C186.08970739 339.00539159 182.17194884 337.70546147 178.25390625 336.40625 C177.5643988 336.1775119 176.87489136 335.9487738 176.16448975 335.71310425 C174.44300291 335.14204011 172.72150241 334.57101719 171 334 C170.01 333.67 169.02 333.34 168 333 C169.51471459 329.49772342 171.63209066 327.12118885 174.1875 324.3125 C177.66387175 320.11221119 177.66387175 320.11221119 178.3125 314.9375 C177.9254362 313.2790805 177.47639306 311.63499947 177 310 C176.68683598 308.61141011 176.37727413 307.2220054 176.0703125 305.83203125 C174.18573227 296.51127687 174.18573227 296.51127687 168.1875 289.6875 C166.81100066 289.07921839 165.4133979 288.51678168 164 288 C162.49414865 287.24066099 160.99387733 286.47013308 159.5 285.6875 C158.345 285.130625 157.19 284.57375 156 284 C156.50660156 285.61068359 156.50660156 285.61068359 157.0234375 287.25390625 C157.47400482 288.69008958 157.92452303 290.12628832 158.375 291.5625 C158.59671875 292.26697266 158.8184375 292.97144531 159.046875 293.69726562 C159.70459548 295.79616775 160.35314665 297.8977266 161 300 C161.38929688 301.25167969 161.77859375 302.50335937 162.1796875 303.79296875 C163.14994721 307.58622219 162.87604208 310.20381767 162 314 C161.34 314.99 160.68 315.98 160 317 C158.19853585 317.08608395 156.39357826 317.15404858 154.59057617 317.11083984 C142.44285551 316.84579867 134.00289853 322.10556771 124.90234375 329.765625 C121.02831415 332.27936905 116.52982928 332.19577418 112.05078125 331.56054688 C104.72214563 329.55738647 98.17372918 324.27386062 92 320 C89.03651571 318.0243438 88.31979627 317.73623141 84.98828125 317.5859375 C84.23095703 317.54726563 83.47363281 317.50859375 82.69335938 317.46875 C81.90767578 317.4378125 81.12199219 317.406875 80.3125 317.375 C79.51521484 317.33632813 78.71792969 317.29765625 77.89648438 317.2578125 C75.93136525 317.16367506 73.9657146 317.08075368 72 317 C70.19770575 313.97214565 68.96059928 311.87698387 69.12109375 308.3046875 C70.38255646 303.56158773 71.68677038 298.83631535 73.0625 294.125 C73.34416016 293.15046875 73.62582031 292.1759375 73.91601562 291.171875 C74.60767841 288.78036299 75.30242031 286.38979149 76 284 C75.01257813 284.5053125 74.02515625 285.010625 73.0078125 285.53125 C71.71364824 286.18771013 70.41937155 286.84394867 69.125 287.5 C68.47402344 287.83386719 67.82304687 288.16773438 67.15234375 288.51171875 C62.2265625 291 62.2265625 291 60 291 C59.73445312 292.08539062 59.46890625 293.17078125 59.1953125 294.2890625 C58.83866918 295.73440647 58.4818912 297.17971722 58.125 298.625 C57.95097656 299.33785156 57.77695312 300.05070312 57.59765625 300.78515625 C56.80669294 303.97830442 55.98260014 307.04835962 54.8671875 310.1484375 C53.87636918 313.40653376 53.54392513 315.61452118 54 319 C55.43468086 321.28865756 56.78717763 323.20284293 58.5 325.25 C63 330.79054054 63 330.79054054 63 333 C58.49475227 334.54193554 53.9892748 336.08319342 49.48339844 337.62329102 C45.69813314 338.91714484 41.91374795 340.21353222 38.12988281 341.51147461 C22.26661443 346.94571761 22.26661443 346.94571761 14.77734375 349.3125 C13.32847778 349.77354126 13.32847778 349.77354126 11.8503418 350.24389648 C10.18014105 350.7696859 8.50603092 351.28329905 6.82739258 351.78149414 C-0.53840409 354.10956943 -3.84363386 358.35998762 -7.6875 364.8125 C-8.73757338 366.57504001 -9.82881699 368.31550252 -11 370 C-11.66 370 -12.32 370 -13 370 C-13.13575439 369.20529297 -13.27150879 368.41058594 -13.41137695 367.59179688 C-16.57399539 348.28652512 -16.57399539 348.28652512 -20.30224609 329.08984375 C-20.86540323 326.23567293 -21.04686819 323.58194656 -21.04638672 320.67578125 C-21.84600292 301.18341283 -37.34308139 289.78213919 -50.59570312 277.35357666 C-54.52806823 273.64758126 -58.4020689 269.88076204 -62.28403378 266.12213898 C-65.30049188 263.20340208 -68.32461569 260.29454481 -71.37709045 257.41345215 C-71.93463516 256.88391434 -72.49217987 256.35437653 -73.06661987 255.80879211 C-74.56697896 254.38484245 -76.07237026 252.96620025 -77.57814026 251.54797363 C-87.11823691 241.511094 -85.44327258 225.51780987 -85.26171875 212.5390625 C-84.97974273 201.97283415 -84.10273521 191.43957129 -83.19506836 180.91137695 C-82.50482934 172.86158465 -81.90662847 164.84677522 -81.671875 156.76953125 C-81.61968024 155.31450914 -81.56679832 153.85951149 -81.51318359 152.40454102 C-81.41449961 149.7198157 -81.3673202 147.05127396 -81.35009766 144.36303711 C-80.98012817 134.63283961 -77.70143202 129.8591949 -71 123 C-69.8925933 121.72323603 -68.7935515 120.43911596 -67.70703125 119.14453125 C-66.2594945 117.47400079 -64.80785766 115.80718647 -63.35351562 114.14257812 C-62.40652609 113.04853265 -61.47215529 111.94338737 -60.55311584 110.82575989 C-59 109 -59 109 -57.42076111 107.46061707 C-51.95304907 101.54556556 -52.26741297 95.25495032 -52.48607635 87.62016296 C-52.54800587 85.36507077 -52.56809724 83.11294531 -52.57720947 80.85705566 C-52.61023962 74.45159503 -52.71583585 68.04807894 -52.85205078 61.64404297 C-52.93281885 57.71166355 -52.96443352 53.78123556 -52.9673233 49.84806824 C-52.97859128 48.35838627 -53.00884837 46.86871366 -53.05910492 45.37983704 C-53.44851592 33.77413405 -53.44851592 33.77413405 -49.85244751 29.36968994 C-47.32479853 27.32894619 -44.7915392 25.6538431 -42 24 C-40.60796168 22.95117988 -39.22731377 21.88676071 -37.8671875 20.796875 C-35.81574493 19.22589122 -33.75902931 17.66239793 -31.69726562 16.10498047 C-27.96580772 13.28357463 -24.2799408 10.42953909 -20.6640625 7.4609375 C-19.61436279 6.62030762 -19.61436279 6.62030762 -18.54345703 5.76269531 C-17.2185956 4.70090673 -15.90843773 3.62040061 -14.61669922 2.51855469 C-9.52563755 -1.49849477 -6.17802912 -1.46432872 0 0 Z " fill="#FDFDFD" transform="translate(396,296)"/>
<path d="M0 0 C0.48726562 0.56058105 0.97453125 1.12116211 1.4765625 1.69873047 C2.34873413 2.66758179 2.34873413 2.66758179 3.23852539 3.65600586 C4.16072876 4.72516235 4.16072876 4.72516235 5.1015625 5.81591797 C6.49203194 7.36254808 7.8868298 8.90529406 9.28515625 10.44482422 C10.42380127 11.70190186 10.42380127 11.70190186 11.58544922 12.984375 C16.77220983 18.56369075 22.23458032 23.8764853 27.65649414 29.22589111 C36.82248068 38.27521825 36.82248068 38.27521825 40.4921875 42.59716797 C43.51404618 46.13338557 46.78094028 49.38432561 50.11328125 52.62451172 C50.65316177 53.1517836 51.1930423 53.67905548 51.74928284 54.2223053 C53.99346275 56.41248568 56.23859357 58.60115639 58.50317383 60.77026367 C70.44037429 72.22798973 70.44037429 72.22798973 73.1015625 80.69091797 C73.59140625 81.91037109 74.08125 83.12982422 74.5859375 84.38623047 C75.00359375 85.51802734 75.42125 86.64982422 75.8515625 87.81591797 C76.27953125 88.95287109 76.7075 90.08982422 77.1484375 91.26123047 C78.85114539 97.38818754 78.65312954 101.11256216 75.6015625 106.67529297 C74.45018368 108.60636558 73.28237015 110.52769871 72.1015625 112.44091797 C71.47435303 113.48586426 70.84714355 114.53081055 70.20092773 115.60742188 C68.86242324 117.83644565 67.51775847 120.06177993 66.16748047 122.28369141 C62.79078699 127.85272169 59.48117267 133.46127196 56.1640625 139.06591797 C55.50374023 140.17700928 54.84341797 141.28810059 54.16308594 142.43286133 C48.67933207 151.66988384 43.30136099 160.96458943 37.97290039 170.29199219 C36.83998936 172.26897452 35.69698402 174.24022471 34.54150391 176.20410156 C33.39549583 178.18328743 32.33129262 180.20978346 31.296875 182.24951172 C27.92731809 185.99679476 24.04571619 186.47430561 19.2265625 187.44091797 C17.45791825 187.82965928 15.68967731 188.22024074 13.921875 188.61279297 C13.08301758 188.79003906 12.24416016 188.96728516 11.37988281 189.14990234 C8.91315215 189.68486521 8.91315215 189.68486521 5.90625 190.89404297 C2.25583796 191.93120739 -0.16798497 191.39729844 -3.8984375 190.69091797 C-4.71844238 190.60310059 -5.53844727 190.5152832 -6.38330078 190.42480469 C-14.4305357 189.54214917 -23.24803445 188.43592844 -29.12158203 182.41015625 C-33.28188299 176.64530261 -36.31443117 170.29906757 -39.34082031 163.88623047 C-41.73463927 158.97552474 -44.56174105 154.35491333 -47.3984375 149.69091797 C-48.47406372 147.88002464 -49.54696425 146.06750964 -50.6171875 144.25341797 C-51.1534375 143.34591797 -51.6896875 142.43841797 -52.2421875 141.50341797 C-54.55005814 137.58439235 -56.84179975 133.65608929 -59.12963867 129.7253418 C-60.30296296 127.71247118 -61.48017414 125.70186095 -62.66137695 123.69360352 C-65.61928275 118.6571471 -68.50754651 113.59882567 -71.28515625 108.46044922 C-71.84009766 107.45949219 -72.39503906 106.45853516 -72.96679688 105.42724609 C-74.01043391 103.54265666 -75.03066586 101.64481996 -76.02148438 99.73193359 C-79.97861429 92.68579244 -84.38748172 90.31199128 -91.8984375 87.69091797 C-93.20059204 87.19966431 -93.20059204 87.19966431 -94.52905273 86.69848633 C-97.26520391 85.67968759 -100.01615326 84.71347321 -102.7734375 83.75341797 C-113.91048025 79.8084376 -124.97427244 75.68705951 -136.0234375 71.50341797 C-136.80104431 71.20968292 -137.57865112 70.91594788 -138.37982178 70.61331177 C-148.59952416 66.75147071 -158.76799131 62.78136317 -168.8984375 58.69091797 C-170.56484446 58.02360241 -172.231407 57.35667434 -173.8984375 56.69091797 C-171.24301143 53.57116487 -167.89420186 51.95148808 -164.30078125 50.13623047 C-163.31317558 49.62862434 -163.31317558 49.62862434 -162.30561829 49.11076355 C-160.15221882 48.00616841 -157.99449493 46.9103957 -155.8359375 45.81591797 C-154.34789644 45.05851724 -152.85994138 44.30094752 -151.37207031 43.54321289 C-149.10396038 42.38882397 -146.83535359 41.23546482 -144.56521606 40.08506775 C-140.34908236 37.94708877 -136.1476795 35.78459452 -131.96363831 33.58447266 C-130.15540579 32.63510493 -128.34337007 31.69350698 -126.52954102 30.75488281 C-124.31609417 29.60828251 -122.10920976 28.44890203 -119.90991211 27.27539062 C-118.92128174 26.76927246 -117.93265137 26.2631543 -116.9140625 25.74169922 C-116.06102539 25.29479736 -115.20798828 24.84789551 -114.32910156 24.38745117 C-111.11261828 23.46573293 -109.81777492 24.14953345 -106.8984375 25.69091797 C-105.48715395 26.52298895 -104.10005587 27.3972634 -102.73828125 28.30810547 C-101.95533691 28.82622803 -101.17239258 29.34435059 -100.36572266 29.87817383 C-99.53089355 30.43512939 -98.69606445 30.99208496 -97.8359375 31.56591797 C-90.98677017 36.0800565 -84.08179711 40.44897762 -77.0234375 44.62841797 C-67.08130232 50.5259296 -57.34462008 56.72206144 -47.61328125 62.95947266 C-44.90373459 64.68753964 -42.18459152 66.3992478 -39.4609375 68.10498047 C-38.59734619 68.64638672 -37.73375488 69.18779297 -36.84399414 69.74560547 C-35.22225922 70.76098549 -33.59914023 71.77415971 -31.97436523 72.78466797 C-30.88297241 73.46916016 -30.88297241 73.46916016 -29.76953125 74.16748047 C-29.13974365 74.56016113 -28.50995605 74.9528418 -27.86108398 75.35742188 C-22.88883886 78.73575287 -20.08550987 81.57126553 -17.39331055 87.02001953 C-17.08046616 87.64483215 -16.76762177 88.26964478 -16.44529724 88.91339111 C-15.42209138 90.96395683 -14.41611426 93.02246875 -13.41015625 95.08154297 C-12.70090569 96.51124378 -11.990588 97.94041567 -11.2792511 99.36907959 C-9.41586317 103.1186919 -7.56700631 106.87528759 -5.72113037 110.63354492 C-3.83261191 114.4721143 -1.93037503 118.30387036 -0.02929688 122.13623047 C3.6944151 129.64787591 7.40279657 137.16695789 11.1015625 144.69091797 C13.82147866 110.89234401 13.82147866 110.89234401 0.69018555 80.84887695 C-1.04726221 78.48875697 -2.3918286 76.04046156 -3.79296875 73.46826172 C-6.74174459 68.48054108 -9.9226958 66.08539127 -14.9609375 63.37841797 C-16.5685206 62.45535198 -18.1752572 61.53081056 -19.78125 60.60498047 C-20.61817383 60.1322168 -21.45509766 59.65945312 -22.31738281 59.17236328 C-26.72464134 56.64273362 -31.02457515 53.94213886 -35.3359375 51.25341797 C-36.2213623 50.70492187 -37.10678711 50.15642578 -38.01904297 49.59130859 C-44.48702381 45.58378023 -50.92179778 41.52554065 -57.34301758 37.44360352 C-62.14506814 34.40068528 -66.9775051 31.41101628 -71.83203125 28.45263672 C-72.42725082 28.08923691 -73.0224704 27.7258371 -73.63572693 27.35142517 C-76.59748493 25.54332932 -79.56210423 23.74028399 -82.53198242 21.94555664 C-83.60424072 21.29176025 -84.67649902 20.63796387 -85.78125 19.96435547 C-86.74434082 19.38089355 -87.70743164 18.79743164 -88.69970703 18.19628906 C-90.8984375 16.69091797 -90.8984375 16.69091797 -91.8984375 14.69091797 C-72.38958146 9.62257946 -52.71783999 5.56314301 -32.90612793 1.8770752 C-30.90976815 1.50460611 -28.91406883 1.12857858 -26.91906738 0.74890137 C-24.0808203 0.21047634 -21.24018381 -0.31292079 -18.3984375 -0.83251953 C-17.54505798 -0.9968045 -16.69167847 -1.16108948 -15.81243896 -1.33035278 C-4.78798324 -3.3015903 -4.78798324 -3.3015903 0 0 Z " fill="#FCFCFC" transform="translate(510.8984375,116.30908203125)"/>
<path d="M0 0 C0.67063477 0.54197021 1.34126953 1.08394043 2.03222656 1.64233398 C2.78761719 2.24239258 3.54300781 2.84245117 4.32128906 3.46069336 C5.09730469 4.0968457 5.87332031 4.73299805 6.67285156 5.38842773 C7.43339844 5.99750977 8.19394531 6.6065918 8.97753906 7.23413086 C10.51901132 8.46861499 12.05578655 9.70898628 13.58789062 10.95507812 C15.94711152 12.84536563 18.35275441 14.66242873 20.76660156 16.48217773 C23.97407563 18.97024122 26.45150442 21.3226297 28.67285156 24.76342773 C29.50236328 26.02993164 29.50236328 26.02993164 30.34863281 27.32202148 C30.868125 28.14831055 31.38761719 28.97459961 31.92285156 29.82592773 C32.68662109 30.98801758 32.68662109 30.98801758 33.46582031 32.17358398 C36.92285156 37.50922605 36.92285156 37.50922605 36.92285156 39.82592773 C28.53822626 37.89654027 20.16856346 35.93971844 11.86035156 33.70092773 C10.64347656 33.37350586 9.42660156 33.04608398 8.17285156 32.70874023 C6.25481006 32.18773377 4.33771419 31.6631864 2.42285156 31.13061523 C-4.80667287 29.18631131 -9.94643368 29.81591768 -16.88183594 32.45092773 C-17.60581573 32.71728027 -18.32979553 32.98363281 -19.07571411 33.25805664 C-21.37132925 34.10496997 -23.6616827 34.96519786 -25.95214844 35.82592773 C-27.51431937 36.40494134 -29.07681643 36.98307584 -30.63964844 37.56030273 C-34.4559982 38.97203116 -38.26768889 40.39571626 -42.07714844 41.82592773 C-41.08702759 41.86351196 -41.08702759 41.86351196 -40.0769043 41.90185547 C-37.05599475 42.01864526 -34.03533422 42.14099219 -31.01464844 42.26342773 C-29.97630859 42.30274414 -28.93796875 42.34206055 -27.86816406 42.38256836 C-24.93579954 42.50358658 -22.00733882 42.66141745 -19.07714844 42.82592773 C-17.85253906 42.87233398 -16.62792969 42.91874023 -15.36621094 42.96655273 C-10.53890093 44.22784513 -7.3315289 47.01367493 -3.51464844 50.13842773 C-2.05629201 51.30279188 -0.59668011 52.46558551 0.86425781 53.62670898 C1.55148926 54.17665527 2.2387207 54.72660156 2.94677734 55.29321289 C5.52030782 57.28933648 8.18027229 59.07119692 10.92285156 60.82592773 C9.39284869 63.88593348 6.9497338 64.38380136 3.87597656 65.79467773 C3.26776062 66.07565308 2.65954468 66.35662842 2.03289795 66.64611816 C0.08221476 67.54531924 -1.87242896 68.43554052 -3.82714844 69.32592773 C-5.12948563 69.92563718 -6.43157216 70.52589127 -7.73339844 71.12670898 C-23.0510456 78.17275819 -23.0510456 78.17275819 -30.45214844 78.07592773 C-31.20020752 78.07133545 -31.9482666 78.06674316 -32.71899414 78.06201172 C-40.91239699 77.94094275 -49.08910525 77.41267563 -57.26464844 76.88842773 C-57.9447699 76.84504272 -58.62489136 76.80165771 -59.32562256 76.75695801 C-65.95679542 76.3271283 -72.50383404 75.82391008 -79.07714844 74.82592773 C-78.44808594 75.89069336 -77.81902344 76.95545898 -77.17089844 78.05249023 C-74.92057602 81.86510748 -72.67996587 85.68335476 -70.44189453 89.50317383 C-69.16678894 91.67336249 -67.88249338 93.83785484 -66.59667969 96.00170898 C-65.86055042 97.25534982 -65.12484917 98.50924213 -64.38964844 99.76342773 C-63.72578125 100.88620117 -63.06191406 102.00897461 -62.37792969 103.16577148 C-61.94867187 104.04362305 -61.51941406 104.92147461 -61.07714844 105.82592773 C-61.40714844 106.48592773 -61.73714844 107.14592773 -62.07714844 107.82592773 C-72.33209274 101.08650147 -82.43108852 94.13799099 -92.48168945 87.09741211 C-93.91532837 86.09484375 -93.91532837 86.09484375 -95.37792969 85.07202148 C-96.66437378 84.16987915 -96.66437378 84.16987915 -97.97680664 83.24951172 C-100.00740053 81.80595544 -100.00740053 81.80595544 -102.07714844 80.82592773 C-102.07714844 104.25592773 -102.07714844 127.68592773 -102.07714844 151.82592773 C-121.07714844 161.82592773 -121.07714844 161.82592773 -123.07714844 161.82592773 C-123.07714844 111.66592773 -123.07714844 61.50592773 -123.07714844 9.82592773 C-117.11962921 14.29406715 -113.20582811 17.67497275 -108.64355469 23.16577148 C-105.3002226 25.32850533 -103.52253868 25.01932858 -99.68481445 24.38818359 C-94.66238744 23.30526538 -89.71417895 22.01437741 -84.76464844 20.63842773 C-83.61891357 20.32526611 -82.47317871 20.01210449 -81.29272461 19.68945312 C-73.65264833 17.58557144 -66.06026077 15.34756399 -58.48388672 13.02636719 C-51.29137786 10.84222798 -44.03504746 8.94810191 -36.75268555 7.08886719 C-29.05495409 5.11407015 -21.42135328 2.9517591 -13.8137207 0.65405273 C-13.00088623 0.41428711 -12.18805176 0.17452148 -11.35058594 -0.07250977 C-10.64337402 -0.28568848 -9.93616211 -0.49886719 -9.20751953 -0.71850586 C-5.72462528 -1.4633008 -3.17257329 -1.79324224 0 0 Z " fill="#060709" transform="translate(653.0771484375,427.174072265625)"/>
<path d="M0 0 C12.51014779 0.1251368 12.51014779 0.1251368 17.12109375 4.58496094 C19.72355964 7.98959683 21.53175572 11.65359405 23.18591309 15.59359741 C24.79613296 18.62869598 26.83853822 20.74691607 29.14331055 23.29101562 C35.56839976 31.27472698 34.94133526 40.11674454 34.87890625 49.93652344 C34.89262886 51.8444585 34.90855648 53.75237884 34.92655945 55.66027832 C34.95324673 59.64815675 34.9462231 63.63423016 34.91625977 67.62207031 C34.88875184 71.67344439 34.90925876 75.71962444 34.9777832 79.77050781 C35.69037408 122.04044309 35.69037408 122.04044309 23.1668396 136.32617188 C20.80748472 139.13533557 18.892292 142.20532025 16.92573547 145.29675293 C12.62149506 151.43245331 4.5373587 153.45689062 -2.421875 155.21777344 C-6.21957043 155.54725386 -8.80808247 154.89330475 -12.296875 153.40527344 C-13.09867187 153.06882812 -13.90046875 152.73238281 -14.7265625 152.38574219 C-15.61601562 152.0003125 -16.50546875 151.61488281 -17.421875 151.21777344 C-18.5459375 150.89808594 -19.67 150.57839844 -20.828125 150.24902344 C-26.20460178 147.93554896 -28.37463226 142.43045061 -31.046875 137.53027344 C-32.14246828 135.5884377 -33.23881062 133.64702437 -34.3359375 131.70605469 C-35.0467749 130.41501831 -35.0467749 130.41501831 -35.77197266 129.09790039 C-37.27584156 126.36201853 -37.27584156 126.36201853 -38.65121365 124.49518394 C-42.20169621 119.39373691 -43.1662136 115.59057649 -43.14819336 109.43774414 C-43.16498642 108.59914352 -43.18177948 107.76054291 -43.19908142 106.89653015 C-43.24627646 104.14515351 -43.25632821 101.39531003 -43.26171875 98.64355469 C-43.27780947 96.71314389 -43.29463189 94.78273907 -43.31214905 92.8523407 C-43.34201888 88.81165454 -43.35135803 84.77150158 -43.34838867 80.73071289 C-43.34788159 75.5831503 -43.41605248 70.43905283 -43.50224972 65.29230976 C-43.55819071 61.30527949 -43.56797458 57.31906833 -43.56534004 53.33168602 C-43.57119311 51.43599724 -43.59304299 49.54028073 -43.63200188 47.64498329 C-43.8843809 34.09657809 -41.92022105 27.09744764 -32.421875 17.21777344 C-31.28032092 15.7319381 -30.15736442 14.23108527 -29.07421875 12.70214844 C-28.38489258 11.75662109 -28.38489258 11.75662109 -27.68164062 10.79199219 C-27.24529297 10.19 -26.80894531 9.58800781 -26.359375 8.96777344 C-19.175197 -0.91907071 -11.69696862 0.14969039 0 0 Z " fill="#FDFDFD" transform="translate(516.421875,753.7822265625)"/>
<path d="M0 0 C0.64158051 0.2171315 1.28316101 0.434263 1.94418335 0.65797424 C4.03789697 1.36894939 6.1262318 2.09450222 8.21484375 2.8203125 C9.67745213 3.32015708 11.14043005 3.81892153 12.60375977 4.31665039 C15.6204119 5.34352092 18.63535423 6.37521566 21.64941406 7.40966797 C25.97181267 8.88892245 30.305672 10.33156786 34.64453125 11.76171875 C35.31941086 11.98452515 35.99429047 12.20733154 36.68962097 12.43688965 C39.88558141 13.49174954 43.08218417 14.54459127 46.27954102 15.59521484 C48.54740979 16.34731499 50.81161245 17.11059635 53.07128906 17.88696289 C55.03549964 18.56167389 57.00836602 19.21202807 58.99121094 19.82983398 C65.68491297 22.10927367 68.73817051 25.25872031 72.52734375 31.1328125 C73.06552734 31.92147705 73.60371094 32.7101416 74.15820312 33.52270508 C75.27850374 35.16508277 76.3894681 36.81386612 77.49121094 38.46875 C80.13533945 42.4108487 82.90028791 46.26572183 85.65234375 50.1328125 C86.99980062 52.04589367 88.34499666 53.96054209 89.68945312 55.87573242 C91.23742051 58.15037542 91.23742051 58.15037542 93.70135498 60.78608704 C97.35405611 65.94616899 96.86722155 71.45045716 96.83105469 77.5625 C96.84302887 78.82024231 96.85500305 80.07798462 96.86734009 81.37384033 C96.89855064 84.80786962 96.89808974 88.24119573 96.8898344 91.67533112 C96.88566159 94.54811527 96.89666569 97.42076317 96.90747857 100.29352379 C96.93257861 107.07274725 96.93152297 113.85162197 96.9140625 120.63085938 C96.89653428 127.6130486 96.92294927 134.59409647 96.97102904 141.57611656 C97.01085081 147.58318978 97.02343189 153.58990323 97.01431489 159.59710121 C97.0091417 163.17959103 97.01410661 166.7613147 97.04528046 170.34368896 C97.07863289 174.33924005 97.05512876 178.33253829 97.02636719 182.328125 C97.04367889 183.50755676 97.0609906 184.68698853 97.0788269 185.90216064 C96.99278896 191.48542144 96.79038545 195.00442325 92.76446533 199.09228516 C91.5862555 200.0751145 90.38377089 201.03004252 89.15234375 201.9453125 C88.27191406 202.69296875 87.39148438 203.440625 86.484375 204.2109375 C85.65292969 204.86578125 84.82148437 205.520625 83.96484375 206.1953125 C79.09844639 210.10327931 74.49426996 214.22026902 69.94848633 218.49121094 C66.2514603 221.9453125 66.2514603 221.9453125 65.15234375 221.9453125 C65.15456436 221.21331477 65.15678497 220.48131704 65.15907288 219.72713757 C65.21045354 201.88108889 65.21747878 184.03552105 65.1756897 166.18944073 C65.15653973 157.55898987 65.15216909 148.92901266 65.18310547 140.29858398 C65.21004512 132.77252109 65.20873044 125.24707193 65.17408466 117.72103149 C65.15672518 113.73915562 65.15310901 109.75837829 65.18338013 105.77655602 C65.21148492 102.02079129 65.20152507 98.2669649 65.16360664 94.51130486 C65.15276659 92.49162413 65.18117215 90.47184915 65.21116638 88.45236206 C65.06199575 79.02512625 62.32584122 73.94221415 56.15234375 66.9453125 C54.94977323 65.4370212 53.75208725 63.92480216 52.5625 62.40625 C51.44957389 61.0418516 50.33374089 59.67981855 49.21484375 58.3203125 C48.63927734 57.61519531 48.06371094 56.91007813 47.47070312 56.18359375 C43.42806371 51.24100281 42.25147572 49.8750419 35.78515625 48.6640625 C26.46588784 46.86786974 17.25449884 44.65961103 8.02734375 42.4453125 C5.55921863 41.85558349 3.0909222 41.26661742 0.62210083 40.67980957 C-0.97668888 40.29700674 -2.57416078 39.90865379 -4.17019653 39.51452637 C-7.66515024 38.65800997 -11.0821274 37.90948591 -14.64404297 37.36523438 C-20.88503359 36.36236245 -24.26685124 35.25666093 -28.21484375 30.1640625 C-29.42426597 28.28303054 -30.59344652 26.37556345 -31.72265625 24.4453125 C-32.34011719 23.48238281 -32.95757813 22.51945313 -33.59375 21.52734375 C-36.75831033 16.45130403 -36.75831033 16.45130403 -37.84765625 13.9453125 C-36.08922226 8.67001052 -30.38700822 6.88293254 -25.72265625 4.2578125 C-24.68882812 3.65130859 -23.655 3.04480469 -22.58984375 2.41992188 C-21.57921875 1.84693359 -20.56859375 1.27394531 -19.52734375 0.68359375 C-18.60679199 0.15805908 -17.68624023 -0.36747559 -16.73779297 -0.90893555 C-10.82777829 -3.25187345 -5.83118268 -2.00542244 0 0 Z " fill="#FBFBFB" transform="translate(551.84765625,644.0546875)"/>
<path d="M0 0 C1.10537109 0.63164063 2.21074219 1.26328125 3.34960938 1.9140625 C4.48333984 2.58179688 5.61707031 3.24953125 6.78515625 3.9375 C7.956889 4.61335636 9.12940919 5.28784949 10.30273438 5.9609375 C13.15906593 7.60656062 16.00664734 9.26560834 18.84765625 10.9375 C18.37424805 11.65832764 17.90083984 12.37915527 17.41308594 13.12182617 C13.52368068 19.0748648 13.52368068 19.0748648 10.36328125 25.42578125 C8.16985432 30.32037283 6.12415733 33.06468483 1.12353516 34.98193359 C-5.77845498 36.9371985 -12.81115072 38.17508669 -19.87890625 39.36572266 C-24.1623536 40.11392028 -28.36936233 41.08570151 -32.58984375 42.125 C-33.91267623 42.4391568 -35.23558908 42.75297539 -36.55859375 43.06640625 C-40.86273625 44.10969296 -45.15685117 45.18756633 -49.44140625 46.30859375 C-52.15234375 46.9375 -52.15234375 46.9375 -54.86328125 47.28515625 C-59.67205233 47.91332905 -62.37483351 48.65296825 -65.51953125 52.46875 C-66.11709229 53.18828857 -66.71465332 53.90782715 -67.33032227 54.64916992 C-70.25169499 58.31820738 -73.13549316 62.00944665 -75.96484375 65.75 C-76.53654297 66.49958984 -77.10824219 67.24917969 -77.69726562 68.02148438 C-82.95524851 74.63855567 -82.95524851 74.63855567 -84.43081665 82.76506042 C-84.44198013 83.9808226 -84.45314362 85.19658478 -84.46464539 86.44918823 C-84.46701041 87.79840057 -84.46918605 89.14761325 -84.47119141 90.49682617 C-84.48048841 91.91597567 -84.49065674 93.33511969 -84.50163269 94.7542572 C-84.5289726 98.60931687 -84.54409386 102.46433991 -84.55706072 106.31947112 C-84.57267384 110.34740772 -84.59946983 114.37526934 -84.62509155 118.40315247 C-84.67191161 126.03162376 -84.70864007 133.6601091 -84.74176443 141.28865081 C-84.77996305 149.97300287 -84.8293791 158.65727968 -84.87974858 167.34156835 C-84.98311641 185.20682386 -85.07236101 203.07212527 -85.15234375 220.9375 C-86.27677004 219.97393836 -87.40116359 219.01033851 -88.52554321 218.04672241 C-89.46476844 217.24182153 -89.46476844 217.24182153 -90.42296791 216.42066002 C-93.46604849 213.81083088 -96.49700644 211.18710177 -99.52734375 208.5625 C-100.13578125 208.0365625 -100.74421875 207.510625 -101.37109375 206.96875 C-102.59584214 205.90798466 -103.8126097 204.83791887 -105.02033138 203.75780773 C-107.13069941 201.90196958 -107.13069941 201.90196958 -109.45959568 200.29496479 C-112.97380704 197.63346549 -115.66973451 195.48844148 -117.00720024 191.19028282 C-117.35753366 187.89841844 -117.42589151 184.70769969 -117.39624023 181.3972168 C-117.43194374 179.53929756 -117.43194374 179.53929756 -117.46836853 177.6438446 C-117.52215355 174.261353 -117.53544905 170.88383954 -117.52593112 167.50126624 C-117.52258255 164.66173968 -117.54589483 161.82266339 -117.5685249 158.98324424 C-117.62096358 152.26705919 -117.62529419 145.55200154 -117.6003418 138.83569336 C-117.57568764 131.95524282 -117.63505571 125.07918527 -117.73636574 118.19953412 C-117.82059853 112.25745494 -117.84917918 106.31675941 -117.83561569 100.37410289 C-117.8281886 96.84058185 -117.84052054 93.31027883 -117.9076519 89.77731895 C-118.22245799 71.73853047 -116.35545247 60.10794647 -103.76740074 46.70758629 C-101.59073619 44.32198374 -99.85544663 41.7973739 -98.08203125 39.1015625 C-97.55867188 38.328125 -97.0353125 37.5546875 -96.49609375 36.7578125 C-96.01140625 36.03335938 -95.52671875 35.30890625 -95.02734375 34.5625 C-93.98495495 33.0117541 -92.9407371 31.4622358 -91.89453125 29.9140625 C-91.24266846 28.94073975 -91.24266846 28.94073975 -90.57763672 27.94775391 C-90.10729004 27.28437012 -89.63694336 26.62098633 -89.15234375 25.9375 C-88.60634018 25.12818527 -88.06033661 24.31887054 -87.49778748 23.48503113 C-84.59290311 20.32985701 -82.25783884 19.51578929 -78.19995117 18.16674805 C-77.50835403 17.93193222 -76.8167569 17.69711639 -76.10420227 17.45518494 C-73.82717189 16.68686973 -71.54308735 15.94261712 -69.2578125 15.19921875 C-67.66566143 14.6694185 -66.07389509 14.13846078 -64.48249817 13.60639954 C-61.149463 12.49599807 -57.81295754 11.39698588 -54.47338867 10.30639648 C-50.20360158 8.9114564 -45.9421651 7.49282735 -41.68291759 6.06607342 C-38.39724365 4.96758944 -35.10813587 3.87971283 -31.81783485 2.79517555 C-30.24573178 2.27603404 -28.67453696 1.75413334 -27.10429955 1.22937584 C-24.90377695 0.49622237 -22.69917378 -0.22302854 -20.49291992 -0.9387207 C-19.24145676 -1.3499971 -17.98999359 -1.7612735 -16.7006073 -2.18501282 C-10.11845635 -3.81278173 -5.83596375 -3.38667326 0 0 Z " fill="#FCFDFC" transform="translate(492.15234375,645.0625)"/>
<path d="M0 0 C6.12380323 0.49128817 11.79169695 1.88968395 17.6875 3.5625 C19.63801919 4.10547467 21.58854011 4.64844309 23.5390625 5.19140625 C24.57836914 5.48289551 25.61767578 5.77438477 26.68847656 6.07470703 C30.17241668 7.048176 33.65987156 8.00808978 37.1484375 8.96484375 C48.17556541 11.99015293 59.19565188 15.03619347 70.1875 18.1875 C71.02047607 18.42476807 71.85345215 18.66203613 72.71166992 18.90649414 C76.83103186 20.0815306 80.94135578 21.27997935 85.04296875 22.515625 C86.65361661 22.98968263 88.26429246 23.46364517 89.875 23.9375 C90.59453857 24.16139404 91.31407715 24.38528809 92.05541992 24.6159668 C96.72972558 25.97370176 100.29470561 26.32214884 105 25 C107.74492245 22.90313162 107.74492245 22.90313162 110.0625 20.1875 C113.46315604 16.45614807 116.76516276 13.74331308 121 11 C121.35651368 18.79075355 121.60073315 26.57939222 121.76904297 34.37646484 C121.83922774 37.02505056 121.93461064 39.67309797 122.05615234 42.31982422 C123.00957317 63.62357199 123.00957317 63.62357199 119.74887085 69.10211182 C116.62955422 72.43583229 112.95297673 74.37277765 108.8034668 76.17694092 C106.18371005 77.3725352 103.95419466 79.00840022 101.62890625 80.6953125 C99.94114698 81.84008062 98.25233101 82.98329225 96.5625 84.125 C90.53231686 88.20773143 84.52679397 92.31862076 78.578125 96.51953125 C77.00695923 97.62627197 77.00695923 97.62627197 75.40405273 98.75537109 C73.37340153 100.18867761 71.34672896 101.62764082 69.32446289 103.07275391 C68.40914795 103.71776855 67.49383301 104.3627832 66.55078125 105.02734375 C65.74294189 105.60218506 64.93510254 106.17702637 64.1027832 106.76928711 C62 108 62 108 59 108 C60.87135094 104.53968052 62.74776492 101.08213033 64.625 97.625 C65.14707031 96.65949219 65.66914063 95.69398438 66.20703125 94.69921875 C69.64940598 88.36694918 73.23831373 82.14796908 77 76 C75.31596069 76.13631836 75.31596069 76.13631836 73.59790039 76.27539062 C69.34712267 76.61764964 65.09567515 76.95090611 60.84399414 77.28173828 C59.01991311 77.42487253 57.1960103 77.57030055 55.37231445 77.71826172 C46.1418115 78.46565028 36.91503375 79.14336232 27.65234375 79.27734375 C26.35159912 79.29788818 25.05085449 79.31843262 23.71069336 79.33959961 C18.23960479 78.83889008 13.64534084 76.87558126 8.87109375 74.15625 C6.03036985 72.56990065 3.17181369 71.03275624 0.28515625 69.53125 C-3.82790033 67.38664499 -7.91811539 65.20331837 -12 63 C-12 62.34 -12 61.68 -12 61 C-10.53466797 59.73486328 -10.53466797 59.73486328 -8.4921875 58.3203125 C-7.75226563 57.80339844 -7.01234375 57.28648437 -6.25 56.75390625 C-5.46625 56.21636719 -4.6825 55.67882812 -3.875 55.125 C-3.11445313 54.59519531 -2.35390625 54.06539063 -1.5703125 53.51953125 C-0.07152072 52.47812937 1.43266849 51.44444878 2.94238281 50.41894531 C4.68045926 49.22035723 6.37343106 47.95675441 8.0546875 46.6796875 C11.6969887 44.60251308 14.90069563 44.21037742 19 44 C19.89074219 43.9469873 20.78148437 43.89397461 21.69921875 43.83935547 C24.63224365 43.68152231 27.56509696 43.55497315 30.5 43.4375 C32.01980469 43.37272461 32.01980469 43.37272461 33.5703125 43.30664062 C36.0467679 43.20150808 38.52330749 43.09936163 41 43 C40.22398437 42.74307373 39.44796875 42.48614746 38.6484375 42.22143555 C35.09842178 41.04506921 31.54920681 39.86630453 28 38.6875 C26.77925781 38.28337891 25.55851562 37.87925781 24.30078125 37.46289062 C22.51220703 36.86831055 22.51220703 36.86831055 20.6875 36.26171875 C19.5221875 35.87677246 18.356875 35.49182617 17.15625 35.09521484 C14.60025285 34.208287 12.16402141 33.22370985 9.6875 32.14453125 C1.35028718 29.55681583 -7.45742155 32.90796557 -15.6875 34.9375 C-16.78900391 35.20240234 -17.89050781 35.46730469 -19.02539062 35.74023438 C-25.15421089 37.22911028 -25.15421089 37.22911028 -31.17895508 39.08422852 C-33.97650921 39.99237439 -36.08395777 40.1715319 -39 40 C-30.42156046 23.27797269 -17.31797773 12.97420366 -2.42358398 2.07226562 C-1.02176704 1.06822935 -1.02176704 1.06822935 0 0 Z " fill="#060709" transform="translate(373,426)"/>
<path d="M0 0 C9.12446007 1.97133397 17.87512733 1.11920726 26.984375 -0.5625 C35.70427519 -1.75351076 42.59379153 -0.08912916 51 2.25 C60.80424396 4.9934135 60.80424396 4.9934135 70.79296875 6.8984375 C80.65942518 8.32830324 86.00478564 10.26646632 92.15820312 18.40478516 C98.2795563 27.10842766 97.84907251 38.70039208 96.1875 49 C94.19217586 53.91497792 90.3910671 56.92583958 86.1875 60 C85.4965625 60.60457031 84.805625 61.20914063 84.09375 61.83203125 C78.45191481 66.58365884 72.03876115 69.12784313 64.91015625 70.7421875 C58.73507781 69.51105958 56.23281648 64.66832086 52.6875 59.75 C51.94757813 58.78191406 51.20765625 57.81382812 50.4453125 56.81640625 C45.14637085 49.67563915 45.14637085 49.67563915 45.32006836 46.82226562 C46.77772633 43.76007617 49.43800618 42.5259961 52.25 40.75 C53.35472656 40.04359375 54.45945312 39.3371875 55.59765625 38.609375 C56.45230469 38.07828125 57.30695313 37.5471875 58.1875 37 C56.13698791 33.436084 56.13698791 33.436084 53.5 30.3125 C53.066875 29.879375 52.63375 29.44625 52.1875 29 C52.1875 28.34 52.1875 27.68 52.1875 27 C41.86013769 26.94531169 31.53370344 26.93365697 21.20625877 26.97665405 C16.4104559 26.99527473 11.6155893 26.99917733 6.81982422 26.96923828 C2.18977658 26.94087869 -2.43870849 26.95144951 -7.06867599 26.98880005 C-8.83326266 26.99623576 -10.59796581 26.98973961 -12.36244583 26.96896362 C-21.82602841 26.48910571 -21.82602841 26.48910571 -30.26239014 29.84765625 C-31.78625966 31.85608893 -32.88955039 33.66101183 -33.8125 36 C-30.97917533 39.04516202 -28.15749689 41.16868601 -24.5625 43.25 C-23.67046875 43.77078125 -22.7784375 44.2915625 -21.859375 44.828125 C-21.18390625 45.21484375 -20.5084375 45.6015625 -19.8125 46 C-21.13853382 48.82323167 -22.63168088 51.24076646 -24.52734375 53.71484375 C-25.04876953 54.40126953 -25.57019531 55.08769531 -26.10742188 55.79492188 C-26.64947266 56.50197266 -27.19152344 57.20902344 -27.75 57.9375 C-32.5933851 64.25520065 -32.5933851 64.25520065 -36.8125 71 C-50.02072882 68.94298076 -58.24204107 63.01942751 -67.8125 54 C-68.96685547 52.94425781 -68.96685547 52.94425781 -70.14453125 51.8671875 C-74.49889395 44.38217058 -73.15293775 33.27043145 -71.8125 25 C-70.01584508 18.70588708 -66.45364346 14.29540713 -60.8125 11 C-52.49162572 7.4504848 -43.64821638 5.74917591 -34.8125 4 C-32.86370097 3.5822199 -30.91571723 3.16061023 -28.96875 2.734375 C-25.73481466 2.03162968 -22.49778733 1.36196743 -19.25 0.7265625 C-12.25340811 -0.7522626 -7.27415466 -1.65695607 0 0 Z " fill="#FBFBFB" transform="translate(499.8125,700)"/>
<path d="M0 0 C7.140688 6.54563067 10.98523786 16.36201622 15 25 C15.40637695 25.87414551 15.81275391 26.74829102 16.23144531 27.64892578 C17.49700618 30.38677838 18.75171981 33.12922817 20 35.875 C20.59723877 37.18658081 20.59723877 37.18658081 21.20654297 38.5246582 C21.57150879 39.33894287 21.93647461 40.15322754 22.3125 40.9921875 C22.63863281 41.71776855 22.96476563 42.44334961 23.30078125 43.19091797 C24 45 24 45 24 47 C23.33554871 46.95035095 22.67109741 46.9007019 21.98651123 46.84954834 C-12.66429101 43.01770506 -12.66429101 43.01770506 -43.8046875 54.0546875 C-49.93418375 59.57547316 -54.95753628 66.09749295 -59.67285156 72.83691406 C-62.22465487 76.30535339 -64.89731659 78.91456259 -68.26269531 81.56616211 C-69.96838701 82.97390907 -71.16285681 84.43262213 -72.5390625 86.15234375 C-77.33588101 91.02184133 -84.95300367 91.93058602 -91.375 93.5625 C-92.83361283 93.94905889 -94.29162226 94.33790168 -95.74902344 94.72900391 C-97.89727708 95.30526308 -100.04574846 95.88024031 -102.19641113 96.44744873 C-107.26344483 97.7848795 -112.26825 99.25139452 -117.25 100.875 C-133.2634083 106 -133.2634083 106 -139 106 C-137.43939765 101.69404484 -135.27648196 97.85539033 -132.9375 93.9375 C-132.51339844 93.22070068 -132.08929687 92.50390137 -131.65234375 91.76538086 C-128.77289941 86.91881612 -125.84769876 82.10056824 -122.91015625 77.2890625 C-122.55197311 76.70204056 -122.19378998 76.11501862 -121.82475281 75.51020813 C-121.46210831 74.91588486 -121.09946381 74.32156158 -120.72583008 73.70922852 C-120.35954498 73.10893829 -119.99325989 72.50864807 -119.61587524 71.89016724 C-118.87179564 70.67145581 -118.12714598 69.45309225 -117.38192749 68.2350769 C-112.38587512 60.06431125 -107.52035887 51.8459516 -103.13085938 43.32836914 C-99.53438255 36.54827635 -95.04556795 33.69991769 -88.0078125 31.07421875 C-87.32155792 30.8097847 -86.63530334 30.54535065 -85.92825317 30.27290344 C-83.66366073 29.40258757 -81.39444633 28.54507007 -79.125 27.6875 C-77.52929657 27.07702286 -75.93392468 26.46567849 -74.33886719 25.85351562 C-70.97079813 24.56233071 -67.60086473 23.27618608 -64.22949219 21.99365234 C-58.98318005 19.9962911 -53.74475104 17.97882076 -48.5078125 15.95703125 C-31.07699711 9.23139239 -31.07699711 9.23139239 -24.38085938 6.6796875 C-21.39386848 5.54032328 -18.41827903 4.37567861 -15.44726562 3.1953125 C-14.00134147 2.63010755 -12.55537953 2.06499927 -11.109375 1.5 C-10.12025116 1.0985376 -10.12025116 1.0985376 -9.11114502 0.68896484 C-3.37811207 -1.52840671 -3.37811207 -1.52840671 0 0 Z " fill="#FCFCFC" transform="translate(704,187)"/>
<path d="M0 0 C2.73801555 0.68602819 5.30174312 1.54108404 7.94345093 2.53413391 C8.96517395 2.91615463 9.98689697 3.29817535 11.0395813 3.69177246 C12.14046082 4.10792313 13.24134033 4.52407379 14.37557983 4.95283508 C15.52898865 5.38554214 16.68239746 5.81824921 17.87075806 6.2640686 C20.97598249 7.43020042 24.07983568 8.59983892 27.18296051 9.77153778 C29.10051323 10.49518904 31.01856228 11.21750788 32.9367981 11.93934631 C47.75905123 17.51704506 62.5758388 23.10980318 77.35214233 28.80830383 C78.56176636 29.2734137 79.77139038 29.73852356 81.01766968 30.21772766 C83.93113103 31.34921276 86.83055619 32.50951265 89.72714233 33.68330383 C90.8834314 34.12931946 92.03972046 34.57533508 93.23104858 35.03486633 C96.69591474 37.3230878 98.21309229 40.32587817 100.03964233 43.93330383 C100.82416203 45.40178909 101.61066393 46.86921688 102.39901733 48.33564758 C102.98586304 49.44142151 102.98586304 49.44142151 103.58456421 50.5695343 C105.22473771 53.60385528 106.99966702 56.54781014 108.78964233 59.49580383 C111.75780619 64.39398851 114.69469719 69.3097253 117.60604858 74.24189758 C117.95303299 74.82933243 118.3000174 75.41676727 118.65751648 76.02200317 C120.40028568 78.9727763 122.14130397 81.92454784 123.87973022 84.87788391 C127.62264573 91.21421394 131.46459446 97.43872673 135.57040405 103.54756165 C135.95212769 104.25235657 136.33385132 104.95715149 136.72714233 105.68330383 C136.39714233 106.34330383 136.06714233 107.00330383 135.72714233 107.68330383 C113.28463519 101.44160836 113.28463519 101.44160836 106.02011108 99.31611633 C105.33956665 99.11703674 104.65902222 98.91795715 103.95785522 98.71284485 C102.62150884 98.31340691 101.2886502 97.90213573 99.95932007 97.47993469 C96.29272839 96.33420719 92.77893041 95.5102781 88.96932983 94.99189758 C71.43026689 92.07917548 61.59366007 79.85703838 50.08572388 67.33082581 C46.78253194 63.74801667 43.4028674 60.41197478 39.60305786 57.34617615 C37.72714233 55.68330383 37.72714233 55.68330383 36.31005859 53.8820343 C33.79032988 50.74656653 31.8514656 48.93953269 27.86421204 48.03085327 C24.34502782 47.77791031 20.88411649 47.74015576 17.35604858 47.78096008 C16.07858261 47.76866867 14.80111664 47.75637726 13.48493958 47.74371338 C10.10895851 47.71739007 6.73573711 47.72087624 3.3598938 47.73908997 C-0.09270901 47.75028683 -3.54496955 47.72190726 -6.99746704 47.69697571 C-13.75620095 47.65614487 -20.5140804 47.65463513 -27.27285767 47.68330383 C-20.85166379 30.14830012 -20.85166379 30.14830012 -17.39785767 23.49580383 C-17.06761597 22.84780823 -16.73737427 22.19981262 -16.39712524 21.53218079 C-4.89239424 -0.68169799 -4.89239424 -0.68169799 0 0 Z " fill="#FCFCFC" transform="translate(323.2728576660156,186.3166961669922)"/>
<path d="M0 0 C6.73882109 0.25968482 13.13497372 1.15735299 19.671875 2.80078125 C26.08224244 4.36076153 32.50726791 5.73172525 38.98828125 6.96484375 C40.25610695 7.20840103 40.25610695 7.20840103 41.54954529 7.45687866 C45.0111558 8.12074356 48.47311678 8.78182746 51.9387207 9.42456055 C62.16043524 11.32820355 71.62430511 13.34076367 81 18 C81.76923798 18.38060577 82.53847595 18.76121155 83.33102417 19.15335083 C90.19085382 22.55979582 97.00276766 26.05729291 103.8125 29.5625 C105.8272714 30.59479648 107.84224424 31.62669989 109.85742188 32.65820312 C123.60713599 39.70407238 137.31181265 46.83544365 151 54 C151 54.99 151 55.98 151 57 C150.38046951 57.22059586 149.76093903 57.44119171 149.12263489 57.66847229 C133.67539155 63.17752144 118.29686572 68.84757741 102.97143555 74.68676758 C99.61695537 75.9643679 96.2607015 77.2372307 92.90429688 78.50976562 C90.7524995 79.32784976 88.60080271 80.14619851 86.44921875 80.96484375 C85.45460129 81.3418895 84.45998383 81.71893524 83.43522644 82.10740662 C82.51518326 82.45860062 81.59514008 82.80979462 80.6472168 83.17163086 C79.84325974 83.47757675 79.03930267 83.78352264 78.21098328 84.09873962 C75.98431699 84.96341262 75.98431699 84.96341262 73.89704895 86.11427307 C72 87 72 87 69 87 C68.80365967 86.42032471 68.60731934 85.84064941 68.4050293 85.2434082 C67.50514543 82.59770204 66.5964139 79.95511687 65.6875 77.3125 C65.37876953 76.40048828 65.07003906 75.48847656 64.75195312 74.54882812 C61.94673399 66.42845694 58.39282342 61.05590033 52.5 54.875 C51.82654541 54.16287354 51.15309082 53.45074707 50.45922852 52.71704102 C42.27345155 44.13095535 33.83933997 35.78507711 25.40625 27.44287109 C20.2309442 22.31290318 15.14231081 17.19242101 10.41577148 11.63842773 C8.41577112 9.32389032 6.25426175 7.19431613 4.0625 5.0625 C2.69012855 3.72678621 1.32982791 2.37807563 0 1 C0 0.67 0 0.34 0 0 Z " fill="#FCFCFC" transform="translate(535,117)"/>
<path d="M0 0 C4.31162485 3.61270849 6.24910055 8.09183094 8.625 13.0625 C9.51391908 14.8810432 10.4045865 16.69873268 11.296875 18.515625 C11.74740234 19.43537109 12.19792969 20.35511719 12.66210938 21.30273438 C14.66567679 25.34204328 16.76228036 29.32946214 18.875 33.3125 C19.70313612 34.87759828 20.53126088 36.44270258 21.359375 38.0078125 C21.78412109 38.80993164 22.20886719 39.61205078 22.64648438 40.43847656 C29.92449792 54.21209094 37.1061386 68.02979264 44 82 C30.54154881 102.28665838 16.81069235 122.37040885 2.86425781 142.32470703 C1.57090615 144.18072426 0.28425317 146.04142039 -0.99707031 147.90576172 C-1.94598145 149.28078857 -1.94598145 149.28078857 -2.9140625 150.68359375 C-3.76798584 151.92774048 -3.76798584 151.92774048 -4.63916016 153.19702148 C-5.0882373 153.79200439 -5.53731445 154.3869873 -6 155 C-6.33 155 -6.66 155 -7 155 C-6.98215202 153.02041542 -6.98215202 153.02041542 -6.96394348 151.00083923 C-6.85858994 138.51133957 -6.81184536 126.02278362 -6.82121754 113.53282833 C-6.82418555 107.11271015 -6.80712331 100.69399562 -6.74291992 94.27416992 C-6.68161737 88.06844698 -6.67471364 81.86474753 -6.70416832 75.65881538 C-6.70605928 73.30151649 -6.6889567 70.9441169 -6.65177345 68.58711052 C-6.4200271 52.88666053 -8.05242402 43.53025468 -19 32 C-21 29 -21 29 -20.90234375 27.15234375 C-19.63125322 24.12043516 -17.71822103 22.04107473 -15.5625 19.5625 C-11.69593876 15.05647447 -7.97759088 10.47011862 -4.375 5.75 C-3.93744385 5.17709229 -3.4998877 4.60418457 -3.04907227 4.01391602 C-2.03070386 2.67747399 -1.01503172 1.33897801 0 0 Z " fill="#FAFAF9" transform="translate(674,656)"/>
<path d="M0 0 C4.13967418 1.52514312 6.18120802 4.49475314 8.6875 7.9375 C11.26734116 11.41681111 13.83444006 14.86692166 16.6875 18.12890625 C17.5125 19.07636719 18.3375 20.02382813 19.1875 21 C19.94417969 21.845625 20.70085937 22.69125 21.48046875 23.5625 C23 26 23 26 23.08203125 28.33203125 C21.49355494 32.2487436 19.06734532 35.35383121 16.5 38.6875 C15.48846713 40.02389545 14.47799933 41.36109793 13.46875 42.69921875 C13.01951172 43.28533936 12.57027344 43.87145996 12.10742188 44.4753418 C10.12249299 47.20811978 9.86904172 48.97690995 9.84178162 52.30264282 C9.82709839 53.65723854 9.82709839 53.65723854 9.81211853 55.03919983 C9.80636307 56.0325383 9.8006076 57.02587677 9.79467773 58.04931641 C9.78477814 59.09324051 9.77487854 60.13716461 9.76467896 61.21272278 C9.73300079 64.675646 9.70828156 68.13858296 9.68359375 71.6015625 C9.66302968 73.99767419 9.64203336 76.39378221 9.62062073 78.78988647 C9.56534359 85.1060489 9.51595922 91.42224438 9.46777344 97.73846436 C9.41759956 104.17983959 9.36189205 110.62116667 9.30664062 117.0625 C9.19899006 129.70829194 9.09737266 142.35412496 9 155 C3.49881987 149.56385207 3.49881987 149.56385207 1.34375 146.2421875 C0.65623657 145.19490479 0.65623657 145.19490479 -0.04516602 144.12646484 C-0.76530884 143.01198975 -0.76530884 143.01198975 -1.5 141.875 C-2.56012566 140.25971243 -3.62136104 138.64515273 -4.68359375 137.03125 C-5.22870605 136.20109375 -5.77381836 135.3709375 -6.33544922 134.515625 C-9.03336003 130.43828957 -11.7955205 126.40565891 -14.5625 122.375 C-15.10495361 121.58440186 -15.64740723 120.79380371 -16.20629883 119.97924805 C-17.28392604 118.40954477 -18.36196288 116.84012264 -19.44042969 115.27099609 C-20.93450622 113.09536993 -22.42487031 110.91725265 -23.9140625 108.73828125 C-24.3771582 108.06216797 -24.84025391 107.38605469 -25.31738281 106.68945312 C-26.21996645 105.37063883 -27.1204129 104.05035893 -28.01855469 102.72851562 C-30.25749146 99.45226567 -32.55225657 96.24759035 -34.9765625 93.10546875 C-35.45262939 92.47745361 -35.92869629 91.84943848 -36.41918945 91.20239258 C-37.32213594 90.01813563 -38.24173865 88.84632323 -39.18041992 87.69018555 C-40.39453125 86.0859375 -40.39453125 86.0859375 -42 83 C-41.1817352 77.34364528 -37.40388633 72.07096023 -34.625 67.125 C-30.18367728 59.10972669 -25.93860029 51.02568171 -21.875 42.8125 C-17.82186278 34.62046582 -13.67252611 26.49359976 -9.38867188 18.41992188 C-6.15908269 12.3278632 -3.03924241 6.18967662 0 0 Z " fill="#FAFAFA" transform="translate(348,656)"/>
<path d="M0 0 C1.24139236 -0.03324371 2.48278473 -0.06648743 3.76179504 -0.10073853 C6.39804026 -0.156797 9.03133167 -0.19947425 11.66772461 -0.22509766 C15.65156781 -0.27079083 19.62367346 -0.46875389 23.60351562 -0.65234375 C44.60789762 -1.1679042 44.60789762 -1.1679042 53.2434845 6.92416382 C55.92103211 9.815586 58.37477376 12.82218387 60.7616272 15.95623779 C63.1053001 18.79559611 65.77589776 21.06532072 68.62980652 23.37759399 C70.88426908 25.41566674 72.6721377 27.67870009 74.51953125 30.0859375 C66.68472476 37.53635841 60.7637151 41.34836762 49.55505371 41.11486816 C48.84173386 41.08447952 48.128414 41.05409088 47.39347839 41.02278137 C45.11054115 40.92694887 42.83426161 40.89715883 40.54943848 40.88220215 C34.8866791 40.83224096 29.22798737 40.67402091 23.56732178 40.51861572 C18.76174687 40.39094497 13.95885266 40.30583667 9.1516571 40.27436829 C6.92575725 40.24306608 4.70796554 40.15175118 2.48400879 40.05700684 C-8.86391138 39.81610362 -14.50665568 43.69831279 -22.48046875 51.0859375 C-23.87848784 52.21536786 -25.28438924 53.33534058 -26.70703125 54.43359375 C-28.4331598 55.81024884 -30.15669081 57.18976568 -31.875 58.57617188 C-34.40684612 60.589482 -36.38401852 62.05378742 -39.48046875 63.0859375 C-39.48046875 63.7459375 -39.48046875 64.4059375 -39.48046875 65.0859375 C-40.14046875 65.0859375 -40.80046875 65.0859375 -41.48046875 65.0859375 C-41.90711114 49.70310911 -41.65686053 35.03885868 -31.79296875 22.4609375 C-31.02984375 21.6771875 -30.26671875 20.8934375 -29.48046875 20.0859375 C-28.82046875 20.0859375 -28.16046875 20.0859375 -27.48046875 20.0859375 C-27.24070312 19.52777344 -27.0009375 18.96960938 -26.75390625 18.39453125 C-25.20342788 15.58369469 -23.28765001 13.5009884 -21.10546875 11.1484375 C-17.74892238 7.5831051 -17.74892238 7.5831051 -15.11743164 3.49536133 C-10.76271672 -0.48359262 -5.70479761 0.13142667 0 0 Z " fill="#FAFAFA" transform="translate(300.48046875,249.9140625)"/>
<path d="M0 0 C3.96949273 0.04926502 7.91953162 -0.04030423 11.88769531 -0.14208984 C31.40270538 -0.28015176 31.40270538 -0.28015176 37.24707031 4.68383789 C39.89493387 7.49745421 41.91193325 10.53768195 43.83140564 13.87866211 C45.79477749 16.96520844 48.39575421 19.41548804 50.97363281 21.98681641 C62.55150532 34.35752906 62.34553293 49.57930595 61.97363281 65.67431641 C56.77842587 62.33809725 51.94998145 58.61398286 47.09863281 54.79931641 C45.56011605 53.59289095 44.02105733 52.38715631 42.48144531 51.18212891 C41.80742676 50.65248535 41.1334082 50.1228418 40.43896484 49.57714844 C39.62540527 48.94921387 38.8118457 48.3212793 37.97363281 47.67431641 C37.47775162 47.16691422 36.98187042 46.65951202 36.47096252 46.13673401 C30.47580769 40.58715011 24.06510257 40.93020225 16.31509972 41.1298275 C14.00458579 41.18710776 11.69688103 41.20342021 9.38569641 41.20918274 C2.82237412 41.23310773 -3.73929269 41.33224377 -10.30151367 41.45092773 C-14.3310983 41.52099877 -18.35914244 41.54645929 -22.38930321 41.54676247 C-23.91272803 41.5561636 -25.43615836 41.58271464 -26.95894814 41.62769127 C-36.63939138 41.91291913 -42.77090564 40.63770376 -50.1940155 34.0025177 C-52.02636719 31.67431641 -52.02636719 31.67431641 -52.02636719 27.67431641 C-50.83984375 26.12548828 -50.83984375 26.12548828 -49.16699219 24.64306641 C-48.23306641 23.79615234 -48.23306641 23.79615234 -47.28027344 22.93212891 C-46.61898437 22.35205078 -45.95769531 21.77197266 -45.27636719 21.17431641 C-44.00820022 20.04173962 -42.74267131 18.90620355 -41.47949219 17.76806641 C-40.76341797 17.15366699 -40.04734375 16.53926758 -39.30957031 15.90625 C-36.88270867 13.66951501 -36.88270867 13.66951501 -34.85253906 10.58691406 C-26.0924333 -1.30851106 -13.74064407 -0.22305135 0 0 Z " fill="#FAFAFA" transform="translate(703.0263671875,249.32568359375)"/>
<path d="M0 0 C2.9677751 0.59704318 4.9762629 1.47139969 7.41796875 3.25 C8.33932617 3.91515625 8.33932617 3.91515625 9.27929688 4.59375 C9.90900391 5.0578125 10.53871094 5.521875 11.1875 6 C11.82880859 6.4640625 12.47011719 6.928125 13.13085938 7.40625 C17.79416023 10.79416023 17.79416023 10.79416023 19 12 C19.12539652 13.8368023 19.18076971 15.67842193 19.20874023 17.51928711 C19.23767616 19.29395607 19.23767616 19.29395607 19.26719666 21.10447693 C19.3251362 26.59493739 19.37467344 32.08524417 19.4050293 37.57592773 C19.42263881 40.45367647 19.45710291 43.33040703 19.50756836 46.20776367 C19.78575488 62.4475154 19.50739807 76.85973353 13 92 C12.30203577 94.08739425 11.62833351 96.1831893 10.98828125 98.2890625 C10.70533203 99.18753906 10.42238281 100.08601562 10.13085938 101.01171875 C9.57309975 102.79282227 9.01582806 104.57407865 8.45898438 106.35546875 C7.2041147 110.33743396 5.92209922 114.28278085 4.421875 118.1796875 C3.44382245 120.72050838 2.68911908 123.1355952 1.96484375 125.78125 C-0.27079847 133.87376482 -2.72879812 138.78900137 -9.79296875 143.77734375 C-12 145 -12 145 -14 145 C-14 145.66 -14 146.32 -14 147 C-14.66 147 -15.32 147 -16 147 C-16.28129841 130.68339595 -16.49240106 114.36758749 -16.62174606 98.04913902 C-16.68342151 90.47073309 -16.76737837 82.89384029 -16.90527344 75.31640625 C-17.02551708 68.70573456 -17.10244501 62.09615921 -17.12906194 55.48442423 C-17.14460473 51.98826814 -17.18066552 48.49524598 -17.26876068 45.000103 C-17.87951063 19.80482332 -17.87951063 19.80482332 -10.17675781 11.55322266 C-9.12770463 10.55698033 -8.06087139 9.57901405 -6.97442627 8.62368774 C-3.87405355 5.88890491 -2.1257809 3.49423778 0 0 Z " fill="#F8F8F7" transform="translate(759,458)"/>
<path d="M0 0 C1.76171875 1.8359375 1.76171875 1.8359375 3.6875 4.375 C4.31011719 5.18710937 4.93273437 5.99921875 5.57421875 6.8359375 C6.37472656 7.88007813 7.17523438 8.92421875 8 10 C8.64513802 10.67541777 9.29027603 11.35083553 9.95496368 12.0467205 C16.13331734 18.83589034 17.1332743 23.7819807 16.90820312 32.79345703 C16.90937134 34.03362076 16.91053955 35.27378448 16.91174316 36.55152893 C16.90715349 39.92223953 16.867307 43.28893368 16.8111515 46.65893412 C16.76082485 50.19151654 16.75641712 53.72416395 16.74694824 57.25704956 C16.72217467 63.93313447 16.65665317 70.60815975 16.57615232 77.28377998 C16.48644445 84.88952092 16.44267532 92.49531495 16.40258884 100.10145402 C16.319176 115.73491438 16.17864508 131.36732006 16 147 C15.34 147 14.68 147 14 147 C14 146.34 14 145.68 14 145 C13.319375 144.79375 12.63875 144.5875 11.9375 144.375 C5.4262082 141.32716129 2.21044764 138.32246312 -0.30101013 131.54425049 C-1.58669189 127.78052323 -2.77067189 123.98945768 -3.9375 120.1875 C-4.41391257 118.69138598 -4.89241774 117.19593665 -5.37304688 115.70117188 C-6.12159014 113.37041596 -6.86030811 111.03832855 -7.5740509 108.69665527 C-8.94724345 104.20065369 -10.43491057 99.79163785 -12.11010742 95.3984375 C-18.09874256 79.21433485 -19.47274208 64.00619735 -19.42749023 46.94726562 C-19.4222958 44.03714352 -19.47229392 41.13597789 -19.57104492 38.22753906 C-20.42270974 12.81228521 -20.42270974 12.81228521 -14.66455078 6.58105469 C-10.39865348 3.00552139 -5.69918243 0 0 0 Z " fill="#FAFAF9" transform="translate(265,458)"/>
<path d="M0 0 C0 33.99 0 67.98 0 103 C-5.94 105.64 -11.88 108.28 -18 111 C-22.44582794 112.99989375 -26.88964371 115.00382229 -31.33007812 117.015625 C-35.19126349 118.75918669 -39.04523453 120.47585103 -43 122 C-41.99765769 119.22179192 -40.91488744 116.86851089 -39.30516052 114.38166809 C-32.86585387 104.32845468 -33.00286484 95.31665875 -33.09765625 83.69921875 C-33.08825408 81.76722033 -33.07578583 79.83523465 -33.06040955 77.90327454 C-33.02839232 72.86104464 -33.03754973 67.8197309 -33.05578613 62.77746582 C-33.06700265 57.61521658 -33.03858415 52.45319456 -33.01367188 47.29101562 C-32.97069909 37.19384732 -32.97129775 27.09720149 -33 17 C-31.03034465 16.5262146 -29.06068929 16.0524292 -27.09103394 15.5786438 C-17.98989925 13.06012171 -9.86292937 7.58199637 -2.79296875 1.50390625 C-1 0 -1 0 0 0 Z " fill="#FBFBFB" transform="translate(600,772)"/>
<path d="M0 0 C9 6 9 6 11.828125 7.94140625 C16.67260612 11.18408313 21.38611386 13.67803855 26.859375 15.71484375 C28.5913916 16.3644104 28.5913916 16.3644104 30.35839844 17.02709961 C31.66599121 17.5086853 31.66599121 17.5086853 33 18 C32.99920441 19.05298782 32.99840881 20.10597565 32.99758911 21.19087219 C32.99397513 31.15050402 33.02195494 41.10962178 33.0802784 51.06908894 C33.10925874 56.18851605 33.12739432 61.3074878 33.12011719 66.42700195 C33.11349391 71.37459491 33.1361788 76.32129045 33.17855453 81.26869774 C33.18963256 83.1491393 33.19043416 85.02967246 33.18042374 86.91012001 C33.13001656 97.77872539 33.43540756 105.86227175 40 115 C41.75857544 117.66059875 41.75857544 117.66059875 43 120 C42.67 120.66 42.34 121.32 42 122 C37.62501255 119.9570323 33.25086573 117.91227857 28.87744141 115.8659668 C27.39393929 115.17213289 25.91022067 114.4787617 24.42626953 113.78588867 C22.27577549 112.78169641 20.1261029 111.77576295 17.9765625 110.76953125 C17.00404037 110.31608086 17.00404037 110.31608086 16.01187134 109.85346985 C10.62211099 107.32721849 5.32982919 104.66491459 0 102 C0 68.34 0 34.68 0 0 Z " fill="#FAFAFA" transform="translate(424,772)"/>
<path d="M0 0 C9.51761867 7.93470253 18.32890084 16.66730443 27.18430328 25.32498932 C30.13539083 28.20887739 33.0992023 31.07645654 36.09765625 33.91113281 C39.01818671 36.67294001 41.89967687 39.47050797 44.75834656 42.29624939 C45.84586698 43.35875614 46.94628807 44.4082368 48.05989075 45.44337463 C56.69769707 53.49850917 56.69769707 53.49850917 57.44285583 59.66453552 C57.20401785 63.20378293 56.69094313 66.52425083 56 70 C55.82073975 71.92627748 55.66117236 73.85466431 55.53515625 75.78515625 C55.37920742 77.54441369 55.22168851 79.30353275 55.0625 81.0625 C54.95131836 82.40731445 54.95131836 82.40731445 54.83789062 83.77929688 C54.21983668 90.54774135 53.20437538 95.05959303 48.4375 100.125 C43.14964244 105.88395759 38.27341895 111.9568222 33.35546875 118.03125 C32.25829047 119.37189435 31.13323727 120.68969441 30 122 C29.67 122 29.34 122 29 122 C28.91435791 120.94611084 28.82871582 119.89222168 28.74047852 118.80639648 C28.42018904 114.87197496 28.09710011 110.93778735 27.77319336 107.00366211 C27.63376518 105.30548185 27.49508198 103.60724024 27.35717773 101.90893555 C27.15807886 99.45865379 26.9562439 97.00860993 26.75390625 94.55859375 C26.6934462 93.80726669 26.63298615 93.05593964 26.57069397 92.28184509 C25.91283297 84.3833714 25.41673988 78.61658556 20.125 72.375 C19.39603516 71.48192139 19.39603516 71.48192139 18.65234375 70.57080078 C17.11742569 68.69999609 15.56192481 66.84829387 14 65 C13.48920898 64.3915625 12.97841797 63.783125 12.45214844 63.15625 C10.08609862 60.33945175 7.70808332 57.53389795 5.3125 54.7421875 C4.549375 53.83726562 3.78625 52.93234375 3 52 C2.46432907 51.38368713 1.92865814 50.76737427 1.37675476 50.13238525 C-0.27471997 47.57450025 -0.3644363 46.16193155 -0.34057617 43.13964844 C-0.34034958 42.17895447 -0.34012299 41.2182605 -0.33988953 40.22845459 C-0.32440567 39.19915833 -0.30892181 38.16986206 -0.29296875 37.109375 C-0.28872391 36.04962463 -0.28447906 34.98987427 -0.28010559 33.89801025 C-0.2633203 30.51508113 -0.22566755 27.13274891 -0.1875 23.75 C-0.17245301 21.45573777 -0.15876463 19.1614662 -0.14648438 16.8671875 C-0.11341728 11.2445882 -0.06321903 5.62233675 0 0 Z " fill="#FBFBFA" transform="translate(700,343)"/>
<path d="M0 0 C0.35995525 6.38048951 0.60209397 12.75830591 0.76904297 19.14672852 C0.83873301 21.3111341 0.9337371 23.47489843 1.05615234 25.63696289 C1.73482296 37.94713531 1.6353266 47.05983489 -6.76171875 56.671875 C-8.57219434 58.60914438 -10.41693841 60.48654937 -12.32167053 62.33100891 C-14.67308208 64.66933699 -16.65890149 67.19125775 -18.6875 69.8125 C-19.26886719 70.54082031 -19.85023438 71.26914062 -20.44921875 72.01953125 C-20.96097656 72.67308594 -21.47273438 73.32664062 -22 74 C-22.50289551 74.49878662 -23.00579102 74.99757324 -23.52392578 75.51147461 C-25.81981936 79.38214004 -25.82132203 83.36854258 -26.16796875 87.796875 C-26.25250809 88.74564514 -26.33704742 89.69441528 -26.42414856 90.67193604 C-26.69086506 93.6970377 -26.93939969 96.72332031 -27.1875 99.75 C-27.36533963 101.80348942 -27.54436215 103.85687676 -27.72460938 105.91015625 C-28.1634651 110.93902348 -28.58602308 115.96902614 -29 121 C-32.81994797 117.21782555 -36.39126509 113.33686215 -39.875 109.25 C-40.36613281 108.68023437 -40.85726563 108.11046875 -41.36328125 107.5234375 C-42.38597606 106.32807993 -43.39793458 105.12347091 -44.40014648 103.91088867 C-45.48246873 102.618147 -46.59815106 101.35273635 -47.74243164 100.11450195 C-56.32427419 90.26727488 -60.41013553 76.85673157 -59.62924194 63.86122131 C-55.72681907 40.07005337 -20.75168463 15.37485525 -2.73181152 1.21806335 C-1 0 -1 0 0 0 Z " fill="#FBFBFA" transform="translate(324,344)"/>
<path d="M0 0 C2.22412401 2.22412401 2.47185575 3.18506161 3.19140625 6.171875 C3.40949951 7.04972656 3.62759277 7.92757812 3.85229492 8.83203125 C4.0866626 9.79496094 4.32103027 10.75789062 4.5625 11.75 C7.03845559 21.57459178 9.78127043 31.29619161 12.6875 41 C12.87949982 41.64706909 13.07149963 42.29413818 13.26931763 42.96081543 C16.17561193 52.7424234 18.75335831 60.98211135 25.25 68.9375 C25.73436523 69.54577637 26.21873047 70.15405273 26.71777344 70.78076172 C29.95062555 74.8116235 33.32235935 78.67083219 36.953125 82.3515625 C38 84 38 84 37.6658783 85.89268494 C36.60853752 89.23886722 34.9332436 92.27671495 33.31640625 95.37890625 C32.75956902 96.45914314 32.75956902 96.45914314 32.19148254 97.561203 C30.98595084 99.89712954 29.7743851 102.22986422 28.5625 104.5625 C27.73295557 106.16619629 26.90369177 107.77003776 26.07470703 109.37402344 C20.43491562 120.27648116 14.76657997 131.1639859 9 142 C8.61070312 142.73202637 8.22140625 143.46405273 7.8203125 144.21826172 C5.55197929 148.48157916 3.27851024 152.74211355 1 157 C0.67 157 0.34 157 0 157 C0 105.19 0 53.38 0 0 Z " fill="#F4F4F3" transform="translate(300,556)"/>
<path d="M0 0 C0.33 0 0.66 0 1 0 C1 52.14 1 104.28 1 158 C-2.09275232 154.90724768 -3.70234629 151.92941355 -5.5625 148.0625 C-6.27454002 146.61188119 -6.9867893 145.16136509 -7.69921875 143.7109375 C-8.07353027 142.94362305 -8.4478418 142.17630859 -8.83349609 141.38574219 C-14.14575454 130.52107296 -19.57403191 119.71223423 -25.1875 109 C-25.59959717 108.21318848 -26.01169434 107.42637695 -26.4362793 106.61572266 C-29.38056101 101.0476894 -32.53138766 95.66068979 -35.91796875 90.34765625 C-37 88 -37 88 -36.890625 85.9296875 C-35.78093398 83.52535696 -34.39200843 81.98035491 -32.5625 80.0625 C-29.10180297 76.28321895 -25.83938984 72.41163084 -22.6875 68.375 C-22.26734619 67.84914307 -21.84719238 67.32328613 -21.41430664 66.78149414 C-15.67094943 59.35794241 -13.90569642 51.26112682 -11.6875 42.3125 C-9.31961308 32.9517788 -6.81147287 23.66787866 -3.95385742 14.44458008 C-2.473837 9.65996379 -1.17459386 4.86932571 0 0 Z " fill="#F6F6F6" transform="translate(723,555)"/>
<path d="M0 0 C1.13917374 0.00666183 1.13917374 0.00666183 2.30136108 0.01345825 C3.59247299 0.01368484 3.59247299 0.01368484 4.90966797 0.01391602 C5.83991791 0.02423859 6.77016785 0.03456116 7.72860718 0.04519653 C8.68020721 0.04802643 9.63180725 0.05085632 10.61224365 0.05377197 C13.6589706 0.06498914 16.70540621 0.09009641 19.75204468 0.11550903 C21.81454044 0.12553685 23.8770408 0.13466304 25.93954468 0.14285278 C31.00215735 0.16493349 36.06455158 0.19947374 41.12704468 0.24050903 C41.12704468 0.90050903 41.12704468 1.56050903 41.12704468 2.24050903 C39.52923628 3.32541358 37.87875121 4.33303661 36.20980835 5.30496216 C30.28681353 8.97493379 25.63678223 13.22623494 20.80282593 18.20925903 C19.97171799 19.04839844 19.14061005 19.88753784 18.28431702 20.75210571 C15.65963512 23.40548994 13.04906757 26.07222291 10.43954468 28.74050903 C7.81671516 31.40609813 5.19096641 34.06874602 2.56263733 36.72891235 C0.93712169 38.37582377 -0.6848508 40.02624295 -2.30256653 41.68081665 C-6.41634856 45.86633598 -10.60158251 49.85650351 -15.09495544 53.63394165 C-17.02850931 55.38106471 -18.69201222 57.25118994 -20.37295532 59.24050903 C-23.83804217 63.32835342 -27.64625848 66.94162369 -31.87295532 70.24050903 C-32.20295532 70.24050903 -32.53295532 70.24050903 -32.87295532 70.24050903 C-33.83443895 63.93433422 -34.68167919 57.62104975 -35.46084595 51.28982544 C-35.84681342 48.4339405 -36.339443 45.61781894 -36.85733032 42.78347778 C-38.68675171 30.99523422 -38.68675171 30.99523422 -35.61074829 26.32351685 C-31.99655963 22.45767356 -27.69959224 19.6286064 -23.25576782 16.80105591 C-19.1604126 14.11893392 -15.35675514 11.06044398 -11.49795532 8.05300903 C-9.47007497 6.51678346 -7.43947393 4.98429143 -5.40664673 3.45462036 C-1.24458287 0.15981877 -1.24458287 0.15981877 0 0 Z " fill="#F8F8F8" transform="translate(297.8729553222656,306.7594909667969)"/>
<path d="M0 0 C5.76140503 -0.24946132 11.51959135 -0.42967902 17.28515625 -0.54931641 C19.24079203 -0.59923794 21.19606166 -0.66720645 23.15039062 -0.75439453 C41.96861335 -1.57215983 41.96861335 -1.57215983 48.9453125 4.71875 C50.6611619 6.44901057 52.35074964 8.20614548 54 10 C55.19517796 10.99330586 56.41224321 11.96191329 57.6640625 12.8828125 C59.19615812 14.043001 60.72666787 15.20583353 62.23095703 16.40185547 C64.76933478 18.40591802 67.1887467 20.09581051 70.078125 21.5625 C73.50068847 23.47454663 75.04551827 24.55617636 77 28 C78.16139676 37.1182362 77.26075344 47.1047781 75 56 C74.77882441 58.4138176 74.59427758 60.83114597 74.4375 63.25 C74.31181641 65.14492188 74.31181641 65.14492188 74.18359375 67.078125 C74.12300781 68.04234375 74.06242188 69.0065625 74 70 C70.82716634 68.59879754 68.70831007 66.94854242 66.27636719 64.48754883 C65.20440094 63.41051445 65.20440094 63.41051445 64.11077881 62.3117218 C63.34719055 61.53467392 62.58360229 60.75762604 61.796875 59.95703125 C61.00025452 59.1552092 60.20363403 58.35338715 59.38287354 57.52726746 C56.8337925 54.96037582 54.2914714 52.38692442 51.75 49.8125 C49.22200181 47.25675608 46.69252167 44.7025261 44.15997314 42.15129089 C42.58547555 40.5646798 41.01365686 38.97540406 39.44500732 37.38301086 C35.33961274 33.2407488 31.14863538 29.27925688 26.71568298 25.48835754 C24.30098304 23.39360175 22.05561799 21.15105121 19.8125 18.875 C19.01457031 18.06804687 18.21664062 17.26109375 17.39453125 16.4296875 C15.761862 14.77304758 14.14119895 13.10450966 12.53125 11.42578125 C9.29492792 8.32430592 5.74437929 6.00834315 2.01171875 3.55078125 C1.34785156 3.03902344 0.68398438 2.52726562 0 2 C0 1.34 0 0.68 0 0 Z " fill="#F9F9F9" transform="translate(686,307)"/>
<path d="M0 0 C0.66 0 1.32 0 2 0 C2.51046875 1.17755859 2.51046875 1.17755859 3.03125 2.37890625 C8.05320028 13.26425062 13.78827324 18.82155554 25 23 C25 23.66 25 24.32 25 25 C24.21496094 25.3403125 23.42992187 25.680625 22.62109375 26.03125 C11.73574938 31.05320028 6.17844446 36.78827324 2 48 C1.34 48 0.68 48 0 48 C-0.3403125 47.21496094 -0.680625 46.42992187 -1.03125 45.62109375 C-6.05320028 34.73574938 -11.78827324 29.17844446 -23 25 C-23 24.34 -23 23.68 -23 23 C-22.21496094 22.6596875 -21.42992187 22.319375 -20.62109375 21.96875 C-9.73574938 16.94679972 -4.17844446 11.21172676 0 0 Z " fill="#818182" transform="translate(967,944)"/>
<path d="M0 0 C0.33 0 0.66 0 1 0 C1 47.19 1 94.38 1 143 C-1.475 140.525 -1.475 140.525 -4 138 C-3.01 138 -2.02 138 -1 138 C-0.67 92.46 -0.34 46.92 0 0 Z " fill="#C0C0C0" transform="translate(406,723)"/>
<path d="M0 0 C0.33 0 0.66 0 1 0 C1 7.59 1 15.18 1 23 C-0.65 21.35 -2.3 19.7 -4 18 C-3.01 18 -2.02 18 -1 18 C-0.505 9.09 -0.505 9.09 0 0 Z " fill="#C9CBCA" transform="translate(406,843)"/>
<path d="M0 0 C1.98 0.99 3.96 1.98 6 3 C4.02579865 5.52259061 3.03254358 5.9929808 -0.1875 6.6875 C-1.5796875 6.8421875 -1.5796875 6.8421875 -3 7 C-3 6.34 -3 5.68 -3 5 C-2.34 5 -1.68 5 -1 5 C-0.67 3.35 -0.34 1.7 0 0 Z " fill="#E4E4E3" transform="translate(681,169)"/>
<path d="M0 0 C2.64 0 5.28 0 8 0 C8 0.99 8 1.98 8 3 C5.36 3.33 2.72 3.66 0 4 C-0.33 3.34 -0.66 2.68 -1 2 C-0.67 1.34 -0.34 0.68 0 0 Z " fill="#121314" transform="translate(472,116)"/>
<path d="M0 0 C1.3125 1.75 1.3125 1.75 2.3125 4.75 C-0.6575 3.76 -3.6275 2.77 -6.6875 1.75 C-5.6875 -0.25 -5.6875 -0.25 -3.8125 -1.0625 C-1.6875 -1.25 -1.6875 -1.25 0 0 Z " fill="#202221" transform="translate(384.6875,496.25)"/>
<path d="M0 0 C0 0.99 0 1.98 0 3 C-7.42857143 3.28571429 -7.42857143 3.28571429 -11 1 C-7.27569643 0.30710631 -3.78916254 -0.11144596 0 0 Z " fill="#E1E1E0" transform="translate(502,115)"/>
<path d="M0 0 C0.66 0 1.32 0 2 0 C2 2.97 2 5.94 2 9 C-1 6 -1 6 -1.25 3.375 C-1 1 -1 1 0 0 Z " fill="#EEEEEC" transform="translate(354,801)"/>
<path d="M0 0 C-0.99 0.495 -0.99 0.495 -2 1 C-2 1.66 -2 2.32 -2 3 C-3.65 3.33 -5.3 3.66 -7 4 C-7 3.34 -7 2.68 -7 2 C-7.66 1.67 -8.32 1.34 -9 1 C-5.92677456 0.08941469 -3.19902639 -0.08886184 0 0 Z " fill="#1F2021" transform="translate(651,426)"/>
<path d="M0 0 C0.66 0.66 1.32 1.32 2 2 C-1.37097383 3.49821059 -3.20442119 4 -7 4 C-7 3.34 -7 2.68 -7 2 C-4.69 1.34 -2.38 0.68 0 0 Z " fill="#D6D7D7" transform="translate(539,298)"/>
<path d="M0 0 C2.31 0.33 4.62 0.66 7 1 C5 3 5 3 1.875 3.125 C0.451875 3.063125 0.451875 3.063125 -1 3 C-0.67 2.01 -0.34 1.02 0 0 Z " fill="#0D0E0E" transform="translate(378,427)"/>
</svg>
